<svg width="194" height="300" viewBox="0 0 194 300" fill="none" xmlns="http://www.w3.org/2000/svg">
<path d="M96.7893 206.786C126.285 206.786 150.196 182.875 150.196 153.379C150.196 123.884 126.285 99.9729 96.7893 99.9729C67.2937 99.9729 43.3828 123.884 43.3828 153.379C43.3828 182.875 67.2937 206.786 96.7893 206.786Z" stroke="white" stroke-width="4.19483" stroke-miterlimit="10"/>
<path d="M9.45799 153.496C25.8019 185.134 58.8395 206.786 96.9055 206.786C134.981 206.786 168.002 185.147 184.342 153.496" stroke="white" stroke-width="4.19483" stroke-miterlimit="10"/>
<line x1="177.855" y1="151.979" x2="189.466" y2="151.979" stroke="white" stroke-width="4.19483" stroke-miterlimit="10"/>
<line x1="4.24316" y1="151.979" x2="15.8533" y2="151.979" stroke="white" stroke-width="4.19483" stroke-miterlimit="10"/>
<path d="M60.7172 284.965C58.2344 284.965 55.8896 284.569 53.6827 283.776C51.5103 282.948 49.5793 281.776 47.8896 280.258C46.2344 278.741 44.9413 276.948 44.0103 274.879C43.0793 272.81 42.6138 270.517 42.6138 268C42.6138 265.621 43.062 263.345 43.9586 261.172C44.8896 259 46.2 257.069 47.8896 255.379C49.6138 253.689 51.6827 252.362 54.0965 251.396C56.5103 250.396 59.1827 249.896 62.1138 249.896C62.8379 249.896 63.6655 249.948 64.5965 250.052C65.562 250.155 66.5448 250.293 67.5448 250.465C68.5448 250.638 69.4758 250.845 70.3379 251.086C71.2344 251.293 71.9586 251.517 72.5103 251.758C72.8207 251.862 73.062 252.017 73.2344 252.224C73.4069 252.396 73.5103 252.655 73.5448 253C73.7172 254.207 73.8551 255.345 73.9586 256.414C74.0965 257.483 74.1655 258.379 74.1655 259.103C74.1655 259.448 74.0793 259.707 73.9069 259.879C73.7689 260.052 73.562 260.138 73.2862 260.138C72.8724 260.138 72.562 260.034 72.3551 259.827C72.1827 259.621 72.0275 259.362 71.8896 259.052C71.5793 258.396 71.2172 257.724 70.8034 257.034C70.4241 256.31 69.9586 255.655 69.4069 255.069C68.9931 254.655 68.4931 254.258 67.9069 253.879C67.3551 253.5 66.6655 253.189 65.8379 252.948C65.0103 252.707 64.0103 252.586 62.8379 252.586C60.9758 252.586 59.3207 252.965 57.8724 253.724C56.4241 254.483 55.2 255.534 54.2 256.879C53.2344 258.189 52.4931 259.689 51.9758 261.379C51.4931 263.034 51.2517 264.793 51.2517 266.655C51.2517 268.965 51.4758 271.086 51.9241 273.017C52.3724 274.914 53.0275 276.552 53.8896 277.931C54.7517 279.31 55.8207 280.379 57.0965 281.138C58.3724 281.862 59.8551 282.224 61.5448 282.224C62.4413 282.224 63.1655 282.069 63.7172 281.758C64.3034 281.448 64.7689 281.172 65.1138 280.931C65.4586 280.655 65.7344 280.224 65.9413 279.638C66.1827 279.017 66.3034 278.327 66.3034 277.569C66.3379 277.258 66.3551 276.827 66.3551 276.276C66.3551 275.724 66.3551 275.172 66.3551 274.621C66.3896 274.069 66.4069 273.638 66.4069 273.327C66.4069 272.948 66.3207 272.603 66.1482 272.293C66.0103 271.948 65.7172 271.689 65.2689 271.517C64.9586 271.31 64.5965 271.138 64.1827 271C63.8034 270.862 63.4069 270.758 62.9931 270.689C62.6138 270.586 62.2689 270.5 61.9586 270.431C61.6827 270.396 61.4069 270.276 61.131 270.069C60.8551 269.862 60.7172 269.603 60.7172 269.293C60.7172 269.052 60.8379 268.862 61.0793 268.724C61.3207 268.586 61.562 268.517 61.8034 268.517C62.5965 268.517 63.4586 268.534 64.3896 268.569C65.3551 268.603 66.3034 268.655 67.2344 268.724C68.1655 268.758 68.9931 268.776 69.7172 268.776C70.7172 268.776 71.7689 268.741 72.8724 268.672C74.0103 268.603 75.0965 268.569 76.131 268.569C76.3724 268.569 76.5793 268.638 76.7517 268.776C76.9241 268.879 77.0103 269.069 77.0103 269.345C77.0103 269.689 76.9069 269.948 76.7 270.121C76.5275 270.258 76.2862 270.362 75.9758 270.431C75.0103 270.672 74.3551 270.983 74.0103 271.362C73.6655 271.741 73.4241 272.276 73.2862 272.965C73.1482 273.724 73.0448 274.396 72.9758 274.983C72.9413 275.534 72.9241 276.155 72.9241 276.845V278.5C72.9241 278.672 72.9931 278.845 73.131 279.017C73.2689 279.189 73.4241 279.362 73.5965 279.534C73.7344 279.707 73.8551 279.879 73.9586 280.052C74.062 280.224 74.1138 280.414 74.1138 280.621C74.1138 280.827 74.0448 281.052 73.9069 281.293C73.7689 281.5 73.5103 281.638 73.131 281.707C72.8551 281.741 72.3724 281.931 71.6827 282.276C70.9931 282.586 70.131 282.965 69.0965 283.414C68.062 283.827 66.8379 284.189 65.4241 284.5C64.0103 284.81 62.4413 284.965 60.7172 284.965ZM97.687 284.965C95.3077 284.965 93.0319 284.569 90.8594 283.776C88.7215 282.948 86.8077 281.793 85.1181 280.31C83.4629 278.793 82.1525 277 81.187 274.931C80.256 272.827 79.7905 270.5 79.7905 267.948C79.7905 265.603 80.1698 263.362 80.9284 261.224C81.7215 259.052 82.8939 257.121 84.4457 255.431C85.9974 253.741 87.9112 252.396 90.187 251.396C92.4974 250.396 95.1525 249.896 98.1525 249.896C100.566 249.896 102.842 250.31 104.98 251.138C107.153 251.931 109.066 253.086 110.722 254.603C112.377 256.086 113.687 257.879 114.653 259.983C115.618 262.052 116.101 264.362 116.101 266.914C116.101 269.224 115.704 271.465 114.911 273.638C114.118 275.81 112.946 277.741 111.394 279.431C109.842 281.121 107.911 282.465 105.601 283.465C103.325 284.465 100.687 284.965 97.687 284.965ZM98.6181 282.586C100.584 282.586 102.222 282.034 103.532 280.931C104.877 279.827 105.877 278.293 106.532 276.327C107.187 274.362 107.515 272.103 107.515 269.552C107.515 267.448 107.308 265.379 106.894 263.345C106.515 261.276 105.894 259.414 105.032 257.758C104.204 256.103 103.135 254.793 101.825 253.827C100.515 252.827 98.9629 252.327 97.1698 252.327C95.2388 252.327 93.6008 252.879 92.256 253.983C90.9457 255.086 89.9629 256.603 89.3077 258.534C88.6525 260.465 88.325 262.707 88.325 265.258C88.325 267.396 88.5319 269.5 88.9457 271.569C89.3594 273.603 89.9801 275.448 90.8077 277.103C91.6353 278.758 92.687 280.086 93.9629 281.086C95.2732 282.086 96.825 282.586 98.6181 282.586ZM133.366 285.121C132.918 285.121 132.573 284.845 132.332 284.293C132.09 283.776 131.78 283.086 131.401 282.224C131.056 281.362 130.763 280.552 130.521 279.793L120.332 255.793C119.987 254.965 119.521 254.241 118.935 253.621C118.383 252.965 117.608 252.517 116.608 252.276C116.263 252.138 115.97 252 115.728 251.862C115.487 251.724 115.366 251.483 115.366 251.138C115.366 250.896 115.47 250.724 115.677 250.621C115.918 250.483 116.177 250.414 116.452 250.414C117.142 250.414 117.935 250.431 118.832 250.465C119.763 250.5 120.694 250.534 121.625 250.569C122.556 250.603 123.349 250.621 124.004 250.621C124.694 250.621 125.539 250.603 126.539 250.569C127.539 250.5 128.539 250.465 129.539 250.465C130.539 250.431 131.383 250.414 132.073 250.414C132.383 250.414 132.694 250.483 133.004 250.621C133.314 250.724 133.47 250.896 133.47 251.138C133.47 251.414 133.314 251.655 133.004 251.862C132.694 252.034 132.349 252.155 131.97 252.224C130.97 252.465 130.228 252.724 129.745 253C129.263 253.276 129.021 253.707 129.021 254.293C129.021 254.534 129.056 254.793 129.125 255.069C129.194 255.31 129.245 255.534 129.28 255.741L135.952 274.465C136.021 274.672 136.09 274.793 136.159 274.827C136.263 274.862 136.366 274.724 136.47 274.414L142.521 258.534C143.211 256.776 143.349 255.345 142.935 254.241C142.521 253.138 141.556 252.483 140.039 252.276C139.659 252.207 139.297 252.086 138.952 251.914C138.608 251.707 138.435 251.448 138.435 251.138C138.435 250.896 138.59 250.724 138.901 250.621C139.245 250.517 139.59 250.465 139.935 250.465C140.659 250.465 141.263 250.483 141.745 250.517C142.228 250.517 142.694 250.534 143.142 250.569C143.625 250.569 144.211 250.569 144.901 250.569C145.901 250.569 146.849 250.534 147.745 250.465C148.642 250.362 149.59 250.31 150.59 250.31C150.97 250.31 151.314 250.362 151.625 250.465C151.97 250.569 152.142 250.793 152.142 251.138C152.142 251.448 151.987 251.672 151.677 251.81C151.401 251.914 151.09 252.034 150.745 252.172C149.642 252.448 148.745 252.983 148.056 253.776C147.401 254.534 146.763 255.672 146.142 257.189L138.28 276.017C137.728 277.293 137.228 278.414 136.78 279.379C136.366 280.345 135.987 281.224 135.642 282.017C135.297 282.81 134.935 283.569 134.556 284.293C134.452 284.603 134.314 284.81 134.142 284.914C133.97 285.052 133.711 285.121 133.366 285.121Z" fill="white"/>
<path d="M51.6957 52.7241C49.213 52.7241 46.8681 52.3276 44.6612 51.5345C42.4888 50.7069 40.5578 49.5345 38.8681 48.0172C37.213 46.5 35.9199 44.7069 34.9888 42.6379C34.0578 40.569 33.5923 38.2759 33.5923 35.7586C33.5923 33.3793 34.0405 31.1034 34.9371 28.931C35.8681 26.7586 37.1785 24.8276 38.8681 23.1379C40.5923 21.4483 42.6612 20.1207 45.075 19.1552C47.4888 18.1552 50.1612 17.6552 53.0923 17.6552C53.8164 17.6552 54.644 17.7069 55.575 17.8103C56.5405 17.9138 57.5233 18.0517 58.5233 18.2241C59.5233 18.3966 60.4543 18.6034 61.3164 18.8448C62.213 19.0517 62.9371 19.2759 63.4888 19.5172C63.7992 19.6207 64.0405 19.7759 64.213 19.9828C64.3854 20.1552 64.4888 20.4138 64.5233 20.7586C64.6957 21.9655 64.8337 23.1034 64.9371 24.1724C65.075 25.2414 65.144 26.1379 65.144 26.8621C65.144 27.2069 65.0578 27.4655 64.8854 27.6379C64.7474 27.8103 64.5405 27.8966 64.2647 27.8966C63.8509 27.8966 63.5405 27.7931 63.3336 27.5862C63.1612 27.3793 63.0061 27.1207 62.8681 26.8103C62.5578 26.1552 62.1957 25.4828 61.7819 24.7931C61.4026 24.069 60.9371 23.4138 60.3854 22.8276C59.9716 22.4138 59.4716 22.0172 58.8854 21.6379C58.3336 21.2586 57.644 20.9483 56.8164 20.7069C55.9888 20.4655 54.9888 20.3448 53.8164 20.3448C51.9543 20.3448 50.2992 20.7241 48.8509 21.4828C47.4026 22.2414 46.1785 23.2931 45.1785 24.6379C44.213 25.9483 43.4716 27.4483 42.9543 29.1379C42.4716 30.7931 42.2302 32.5517 42.2302 34.4138C42.2302 36.7241 42.4543 38.8448 42.9026 40.7759C43.3509 42.6724 44.0061 44.3103 44.8681 45.6897C45.7302 47.069 46.7992 48.1379 48.075 48.8966C49.3509 49.6207 50.8336 49.9828 52.5233 49.9828C53.4199 49.9828 54.144 49.8276 54.6957 49.5172C55.2819 49.2069 55.7474 48.931 56.0923 48.6897C56.4371 48.4138 56.713 47.9828 56.9199 47.3966C57.1612 46.7759 57.2819 46.0862 57.2819 45.3276C57.3164 45.0172 57.3337 44.5862 57.3337 44.0345C57.3337 43.4828 57.3337 42.931 57.3337 42.3793C57.3681 41.8276 57.3854 41.3966 57.3854 41.0862C57.3854 40.7069 57.2992 40.3621 57.1268 40.0517C56.9888 39.7069 56.6957 39.4483 56.2474 39.2759C55.9371 39.069 55.575 38.8966 55.1612 38.7586C54.7819 38.6207 54.3854 38.5172 53.9716 38.4483C53.5923 38.3448 53.2474 38.2586 52.9371 38.1897C52.6612 38.1552 52.3854 38.0345 52.1095 37.8276C51.8336 37.6207 51.6957 37.3621 51.6957 37.0517C51.6957 36.8103 51.8164 36.6207 52.0578 36.4828C52.2992 36.3448 52.5405 36.2759 52.7819 36.2759C53.575 36.2759 54.4371 36.2931 55.3681 36.3276C56.3336 36.3621 57.2819 36.4138 58.213 36.4828C59.144 36.5172 59.9716 36.5345 60.6957 36.5345C61.6957 36.5345 62.7474 36.5 63.8509 36.431C64.9888 36.3621 66.075 36.3276 67.1095 36.3276C67.3509 36.3276 67.5578 36.3966 67.7302 36.5345C67.9026 36.6379 67.9888 36.8276 67.9888 37.1034C67.9888 37.4483 67.8854 37.7069 67.6785 37.8793C67.5061 38.0172 67.2647 38.1207 66.9543 38.1897C65.9888 38.431 65.3336 38.7414 64.9888 39.1207C64.644 39.5 64.4026 40.0345 64.2647 40.7241C64.1268 41.4828 64.0233 42.1552 63.9543 42.7414C63.9199 43.2931 63.9026 43.9138 63.9026 44.6034V46.2586C63.9026 46.431 63.9716 46.6034 64.1095 46.7759C64.2474 46.9483 64.4026 47.1207 64.575 47.2931C64.713 47.4655 64.8337 47.6379 64.9371 47.8103C65.0405 47.9828 65.0923 48.1724 65.0923 48.3793C65.0923 48.5862 65.0233 48.8103 64.8854 49.0517C64.7474 49.2586 64.4888 49.3966 64.1095 49.4655C63.8336 49.5 63.3509 49.6897 62.6612 50.0345C61.9716 50.3448 61.1095 50.7241 60.075 51.1724C59.0405 51.5862 57.8164 51.9483 56.4026 52.2586C54.9888 52.569 53.4199 52.7241 51.6957 52.7241ZM70.4069 52.2586C70.0276 52.2586 69.7 52.1897 69.4242 52.0517C69.1828 51.9483 69.0621 51.7414 69.0621 51.431C69.0621 51.0862 69.1655 50.8448 69.3724 50.7069C69.6138 50.5345 69.9242 50.3966 70.3035 50.2931C71.3035 50.0172 72.1655 49.5862 72.8897 49C73.6483 48.4138 74.2173 47.6897 74.5966 46.8276C75.4586 44.8966 76.269 43 77.0276 41.1379C77.7862 39.2414 78.5276 37.3793 79.2518 35.5517C79.9759 33.6897 80.7 31.8103 81.4242 29.9138C82.1483 27.9828 82.8724 26.0345 83.5966 24.069C84.1138 22.6552 84.4414 21.6379 84.5793 21.0172C84.7173 20.3621 84.8207 19.9828 84.8897 19.8793C85.5104 19.7069 86.0966 19.5517 86.6483 19.4138C87.2 19.2759 87.7862 19.0862 88.4069 18.8448C89.0276 18.6034 89.5449 18.2931 89.9586 17.9138C90.4069 17.5345 90.7345 17.2414 90.9414 17.0345C91.0793 16.931 91.2173 16.8793 91.3552 16.8793C91.4931 16.8448 91.6311 16.9483 91.769 17.1897C91.8724 17.3966 91.9586 17.6207 92.0276 17.8621C92.1311 18.069 92.2173 18.3103 92.2862 18.5862C93.0104 20.8966 93.7518 23.2586 94.5104 25.6724C95.269 28.0517 96.0276 30.431 96.7862 32.8103C97.5793 35.1897 98.3552 37.5517 99.1138 39.8966C99.8724 42.2069 100.614 44.4655 101.338 46.6724C101.545 47.3621 101.855 47.9483 102.269 48.431C102.717 48.9138 103.217 49.2931 103.769 49.569C104.321 49.8448 104.941 50.0862 105.631 50.2931C106.01 50.3966 106.303 50.5345 106.51 50.7069C106.752 50.8448 106.872 51.069 106.872 51.3793C106.872 51.6207 106.769 51.8103 106.562 51.9483C106.355 52.0862 106.114 52.1552 105.838 52.1552C105.148 52.1552 104.286 52.1207 103.252 52.0517C102.252 52.0172 101.235 51.9828 100.2 51.9483C99.1655 51.9138 98.2518 51.8966 97.4586 51.8966C96.8035 51.8966 95.9931 51.9138 95.0276 51.9483C94.0966 51.9828 93.1483 52.0172 92.1828 52.0517C91.2173 52.0862 90.3897 52.1034 89.7 52.1034C89.3897 52.1034 89.1138 52.0517 88.8724 51.9483C88.6655 51.8103 88.5621 51.6207 88.5621 51.3793C88.5621 51.069 88.6828 50.8276 88.9242 50.6552C89.1655 50.4828 89.4586 50.3621 89.8035 50.2931C91.0793 50.0172 92.0104 49.6552 92.5966 49.2069C93.1828 48.7586 93.3724 48.0862 93.1655 47.1897C93.0276 46.5345 92.8552 45.8448 92.6483 45.1207C92.4414 44.3966 92.2345 43.6724 92.0276 42.9483C91.8552 42.1897 91.6655 41.4655 91.4586 40.7759C91.3897 40.5 91.3035 40.2931 91.2 40.1552C91.0966 40.0172 90.8897 39.9483 90.5793 39.9483H81.4242C81.1828 39.9483 80.9931 40.0172 80.8552 40.1552C80.7173 40.2931 80.6138 40.5172 80.5449 40.8276C80.4069 41.3103 80.2518 41.7931 80.0793 42.2759C79.9069 42.7586 79.7345 43.2414 79.5621 43.7241C79.4242 44.2069 79.2862 44.6897 79.1483 45.1724C79.0104 45.6552 78.8724 46.1207 78.7345 46.569C78.4931 47.6034 78.5966 48.3966 79.0449 48.9483C79.4931 49.5 80.4586 49.9483 81.9414 50.2931C82.769 50.4655 83.1828 50.8276 83.1828 51.3793C83.1828 51.6207 83.0793 51.8103 82.8724 51.9483C82.7 52.0517 82.4069 52.1034 81.9931 52.1034C80.9931 52.1034 80.0621 52.069 79.2 52C78.338 51.9655 77.3897 51.9483 76.3552 51.9483C75.3207 51.9483 74.338 52 73.4069 52.1034C72.4759 52.2069 71.4759 52.2586 70.4069 52.2586ZM82.8724 37.1552H89.5966C90.1138 37.1552 90.3724 37.0345 90.3724 36.7931C90.3724 36.6897 90.3552 36.6034 90.3207 36.5345C90.3207 36.4655 90.3035 36.3793 90.269 36.2759L86.8035 24.5862C86.7 24.2069 86.5966 24.0172 86.4931 24.0172C86.4242 24.0172 86.3035 24.2069 86.1311 24.5862L82.0449 36.2759C81.9759 36.4138 81.9414 36.5517 81.9414 36.6897C81.9414 36.8621 82.0276 36.9828 82.2 37.0517C82.4069 37.1207 82.6311 37.1552 82.8724 37.1552ZM107.702 52.1552C107.426 52.1552 107.184 52.1034 106.978 52C106.771 51.8621 106.667 51.6724 106.667 51.431C106.667 50.8793 107.029 50.5172 107.753 50.3448C109.064 50.069 109.978 49.7241 110.495 49.3103C111.012 48.8621 111.271 48.0862 111.271 46.9828V23.5C111.271 22.3966 111.046 21.6207 110.598 21.1724C110.15 20.6897 109.236 20.2931 107.857 19.9828C107.133 19.8103 106.771 19.4483 106.771 18.8966C106.771 18.6552 106.874 18.4655 107.081 18.3276C107.288 18.1897 107.529 18.1207 107.805 18.1207C108.598 18.1207 109.426 18.1379 110.288 18.1724C111.184 18.2069 112.046 18.2586 112.874 18.3276C113.736 18.3621 114.529 18.3793 115.253 18.3793C115.943 18.3793 116.719 18.3621 117.581 18.3276C118.478 18.2931 119.374 18.2586 120.271 18.2241C121.202 18.1897 122.046 18.1724 122.805 18.1724C123.115 18.1724 123.357 18.2414 123.529 18.3793C123.702 18.4828 123.788 18.6552 123.788 18.8966C123.788 19.2414 123.684 19.4828 123.478 19.6207C123.305 19.7586 123.029 19.8793 122.65 19.9828C121.271 20.3621 120.357 20.7931 119.909 21.2759C119.46 21.7241 119.236 22.4828 119.236 23.5517V46.931C119.236 47.931 119.477 48.6724 119.96 49.1552C120.478 49.6034 121.409 50 122.753 50.3448C123.098 50.4483 123.357 50.569 123.529 50.7069C123.736 50.8448 123.84 51.069 123.84 51.3793C123.84 51.6207 123.753 51.8103 123.581 51.9483C123.443 52.0862 123.219 52.1552 122.909 52.1552C122.15 52.1552 121.305 52.1207 120.374 52.0517C119.443 52.0172 118.529 51.9828 117.633 51.9483C116.736 51.9138 115.943 51.8966 115.253 51.8966C114.529 51.8966 113.736 51.9138 112.874 51.9483C112.012 51.9828 111.133 52.0172 110.236 52.0517C109.34 52.1207 108.495 52.1552 107.702 52.1552ZM125.818 52.2586C125.439 52.2586 125.112 52.1897 124.836 52.0517C124.594 51.9483 124.474 51.7414 124.474 51.431C124.474 51.0862 124.577 50.8448 124.784 50.7069C125.025 50.5345 125.336 50.3966 125.715 50.2931C126.715 50.0172 127.577 49.5862 128.301 49C129.06 48.4138 129.629 47.6897 130.008 46.8276C130.87 44.8966 131.68 43 132.439 41.1379C133.198 39.2414 133.939 37.3793 134.663 35.5517C135.387 33.6897 136.112 31.8103 136.836 29.9138C137.56 27.9828 138.284 26.0345 139.008 24.069C139.525 22.6552 139.853 21.6379 139.991 21.0172C140.129 20.3621 140.232 19.9828 140.301 19.8793C140.922 19.7069 141.508 19.5517 142.06 19.4138C142.612 19.2759 143.198 19.0862 143.818 18.8448C144.439 18.6034 144.956 18.2931 145.37 17.9138C145.818 17.5345 146.146 17.2414 146.353 17.0345C146.491 16.931 146.629 16.8793 146.767 16.8793C146.905 16.8448 147.043 16.9483 147.18 17.1897C147.284 17.3966 147.37 17.6207 147.439 17.8621C147.543 18.069 147.629 18.3103 147.698 18.5862C148.422 20.8966 149.163 23.2586 149.922 25.6724C150.68 28.0517 151.439 30.431 152.198 32.8103C152.991 35.1897 153.767 37.5517 154.525 39.8966C155.284 42.2069 156.025 44.4655 156.749 46.6724C156.956 47.3621 157.267 47.9483 157.68 48.431C158.129 48.9138 158.629 49.2931 159.18 49.569C159.732 49.8448 160.353 50.0862 161.043 50.2931C161.422 50.3966 161.715 50.5345 161.922 50.7069C162.163 50.8448 162.284 51.069 162.284 51.3793C162.284 51.6207 162.18 51.8103 161.974 51.9483C161.767 52.0862 161.525 52.1552 161.249 52.1552C160.56 52.1552 159.698 52.1207 158.663 52.0517C157.663 52.0172 156.646 51.9828 155.612 51.9483C154.577 51.9138 153.663 51.8966 152.87 51.8966C152.215 51.8966 151.405 51.9138 150.439 51.9483C149.508 51.9828 148.56 52.0172 147.594 52.0517C146.629 52.0862 145.801 52.1034 145.112 52.1034C144.801 52.1034 144.525 52.0517 144.284 51.9483C144.077 51.8103 143.974 51.6207 143.974 51.3793C143.974 51.069 144.094 50.8276 144.336 50.6552C144.577 50.4828 144.87 50.3621 145.215 50.2931C146.491 50.0172 147.422 49.6552 148.008 49.2069C148.594 48.7586 148.784 48.0862 148.577 47.1897C148.439 46.5345 148.267 45.8448 148.06 45.1207C147.853 44.3966 147.646 43.6724 147.439 42.9483C147.267 42.1897 147.077 41.4655 146.87 40.7759C146.801 40.5 146.715 40.2931 146.612 40.1552C146.508 40.0172 146.301 39.9483 145.991 39.9483H136.836C136.594 39.9483 136.405 40.0172 136.267 40.1552C136.129 40.2931 136.025 40.5172 135.956 40.8276C135.818 41.3103 135.663 41.7931 135.491 42.2759C135.318 42.7586 135.146 43.2414 134.974 43.7241C134.836 44.2069 134.698 44.6897 134.56 45.1724C134.422 45.6552 134.284 46.1207 134.146 46.569C133.905 47.6034 134.008 48.3966 134.456 48.9483C134.905 49.5 135.87 49.9483 137.353 50.2931C138.18 50.4655 138.594 50.8276 138.594 51.3793C138.594 51.6207 138.491 51.8103 138.284 51.9483C138.112 52.0517 137.818 52.1034 137.405 52.1034C136.405 52.1034 135.474 52.069 134.612 52C133.749 51.9655 132.801 51.9483 131.767 51.9483C130.732 51.9483 129.749 52 128.818 52.1034C127.887 52.2069 126.887 52.2586 125.818 52.2586ZM138.284 37.1552H145.008C145.525 37.1552 145.784 37.0345 145.784 36.7931C145.784 36.6897 145.767 36.6034 145.732 36.5345C145.732 36.4655 145.715 36.3793 145.68 36.2759L142.215 24.5862C142.112 24.2069 142.008 24.0172 141.905 24.0172C141.836 24.0172 141.715 24.2069 141.543 24.5862L137.456 36.2759C137.387 36.4138 137.353 36.5517 137.353 36.6897C137.353 36.8621 137.439 36.9828 137.612 37.0517C137.818 37.1207 138.043 37.1552 138.284 37.1552Z" fill="white"/>
</svg>
