<svg width="189" height="36" viewBox="0 0 189 36" fill="none" xmlns="http://www.w3.org/2000/svg">
<path d="M97.0758 35.256C106.535 35.256 114.204 27.5876 114.204 18.128C114.204 8.66847 106.535 1 97.0758 1C87.6162 1 79.9478 8.66847 79.9478 18.128C79.9478 27.5876 87.6162 35.256 97.0758 35.256Z" stroke="white" stroke-width="1.22449" stroke-miterlimit="10"/>
<path d="M69.0674 18.1653C74.309 28.3121 84.9045 35.2561 97.1127 35.2561C109.324 35.2561 119.914 28.3161 125.154 18.1653" stroke="white" stroke-width="1.22449" stroke-miterlimit="10"/>
<line x1="123.074" y1="17.7392" x2="126.798" y2="17.7392" stroke="white" stroke-width="1.22449" stroke-miterlimit="10"/>
<line x1="67.395" y1="17.7392" x2="71.1185" y2="17.7392" stroke="white" stroke-width="1.22449" stroke-miterlimit="10"/>
<path d="M6.21008 24.1932C5.4264 24.1932 4.68627 24.068 3.98967 23.8177C3.30395 23.5564 2.69443 23.1864 2.1611 22.7075C1.63865 22.2285 1.23048 21.6626 0.936606 21.0095C0.642728 20.3564 0.495789 19.6326 0.495789 18.8381C0.495789 18.087 0.637286 17.3687 0.920279 16.683C1.21416 15.9973 1.62776 15.3877 2.1611 14.8544C2.70531 14.3211 3.35837 13.902 4.12028 13.5973C4.88218 13.2816 5.72572 13.1238 6.65089 13.1238C6.87946 13.1238 7.14069 13.1401 7.43457 13.1728C7.73933 13.2054 8.04953 13.249 8.36518 13.3034C8.68082 13.3578 8.9747 13.4231 9.24681 13.4993C9.5298 13.5646 9.75838 13.6353 9.93253 13.7115C10.0305 13.7442 10.1067 13.7932 10.1611 13.8585C10.2155 13.9129 10.2482 13.9945 10.2591 14.1034C10.3135 14.4843 10.357 14.8435 10.3897 15.1809C10.4332 15.5183 10.455 15.8013 10.455 16.0299C10.455 16.1387 10.4278 16.2204 10.3733 16.2748C10.3298 16.3292 10.2645 16.3564 10.1774 16.3564C10.0468 16.3564 9.94885 16.3238 9.88355 16.2585C9.82912 16.1932 9.78014 16.1115 9.73661 16.0136C9.63865 15.8068 9.52436 15.5945 9.39375 15.3768C9.27402 15.1483 9.12708 14.9415 8.95293 14.7564C8.82232 14.6258 8.6645 14.5007 8.47946 14.3809C8.30531 14.2612 8.08763 14.1632 7.8264 14.087C7.56518 14.0109 7.24953 13.9728 6.87946 13.9728C6.29171 13.9728 5.76926 14.0925 5.31212 14.3319C4.85497 14.5714 4.46858 14.9034 4.15293 15.3279C3.84817 15.7415 3.61416 16.2149 3.45089 16.7483C3.29851 17.2707 3.22232 17.8258 3.22232 18.4136C3.22232 19.1428 3.29307 19.8122 3.43457 20.4217C3.57606 21.0204 3.78286 21.5374 4.05497 21.9728C4.32708 22.4081 4.6645 22.7456 5.06722 22.985C5.46994 23.2136 5.93797 23.3279 6.4713 23.3279C6.75429 23.3279 6.98287 23.2789 7.15701 23.1809C7.34205 23.083 7.48899 22.9959 7.59783 22.9197C7.70667 22.8326 7.79375 22.6966 7.85906 22.5115C7.93525 22.3156 7.97334 22.0979 7.97334 21.8585C7.98423 21.7605 7.98967 21.6245 7.98967 21.4503C7.98967 21.2762 7.98967 21.102 7.98967 20.9279C8.00055 20.7537 8.00599 20.6177 8.00599 20.5197C8.00599 20.4 7.97878 20.2911 7.92436 20.1932C7.88082 20.0843 7.78831 20.0027 7.64681 19.9483C7.54885 19.883 7.43457 19.8285 7.30395 19.785C7.18423 19.7415 7.05906 19.7088 6.92844 19.687C6.80872 19.6544 6.69987 19.6272 6.60191 19.6054C6.51484 19.5945 6.42776 19.5564 6.34069 19.4911C6.25361 19.4258 6.21008 19.3442 6.21008 19.2462C6.21008 19.17 6.24817 19.1102 6.32436 19.0666C6.40055 19.0231 6.47674 19.0013 6.55293 19.0013C6.80327 19.0013 7.07538 19.0068 7.36926 19.0177C7.67402 19.0285 7.97334 19.0449 8.26722 19.0666C8.5611 19.0775 8.82232 19.083 9.05089 19.083C9.36654 19.083 9.69851 19.0721 10.0468 19.0503C10.406 19.0285 10.7489 19.0177 11.0754 19.0177C11.1516 19.0177 11.2169 19.0394 11.2713 19.083C11.3257 19.1156 11.3529 19.1755 11.3529 19.2626C11.3529 19.3714 11.3203 19.453 11.255 19.5075C11.2006 19.551 11.1244 19.5836 11.0264 19.6054C10.7216 19.6816 10.5148 19.7796 10.406 19.8993C10.2972 20.019 10.221 20.1877 10.1774 20.4054C10.1339 20.6449 10.1012 20.8571 10.0795 21.0422C10.0686 21.2163 10.0631 21.4122 10.0631 21.6299V22.1524C10.0631 22.2068 10.0849 22.2612 10.1284 22.3156C10.172 22.37 10.221 22.4245 10.2754 22.4789C10.3189 22.5333 10.357 22.5877 10.3897 22.6422C10.4223 22.6966 10.4386 22.7564 10.4386 22.8217C10.4386 22.887 10.4169 22.9578 10.3733 23.034C10.3298 23.0993 10.2482 23.1428 10.1284 23.1646C10.0414 23.1755 9.88899 23.2353 9.6713 23.3442C9.45361 23.4422 9.1815 23.5619 8.85497 23.7034C8.52844 23.834 8.14205 23.9483 7.69579 24.0462C7.24953 24.1442 6.75429 24.1932 6.21008 24.1932ZM12.4427 24.0462C12.323 24.0462 12.2196 24.0245 12.1325 23.9809C12.0563 23.9483 12.0182 23.883 12.0182 23.785C12.0182 23.6762 12.0509 23.6 12.1162 23.5564C12.1924 23.502 12.2903 23.4585 12.4101 23.4258C12.7257 23.3387 12.9978 23.2027 13.2264 23.0177C13.4659 22.8326 13.6455 22.6041 13.7652 22.3319C14.0373 21.7224 14.2931 21.1238 14.5325 20.536C14.772 19.9374 15.006 19.3496 15.2346 18.7728C15.4631 18.185 15.6917 17.5918 15.9203 16.9932C16.1489 16.3836 16.3774 15.7687 16.606 15.1483C16.7693 14.702 16.8727 14.3809 16.9162 14.185C16.9597 13.9782 16.9924 13.8585 17.0142 13.8258C17.2101 13.7714 17.3951 13.7224 17.5693 13.6789C17.7434 13.6353 17.9284 13.5755 18.1244 13.4993C18.3203 13.4231 18.4835 13.3251 18.6142 13.2054C18.7557 13.0857 18.8591 12.9932 18.9244 12.9279C18.9679 12.8952 19.0114 12.8789 19.055 12.8789C19.0985 12.868 19.1421 12.9007 19.1856 12.9768C19.2182 13.0421 19.2455 13.1129 19.2672 13.1891C19.2999 13.2544 19.3271 13.3306 19.3489 13.4177C19.5774 14.1469 19.8114 14.8925 20.0509 15.6544C20.2904 16.4054 20.5298 17.1564 20.7693 17.9075C21.0196 18.6585 21.2645 19.4041 21.504 20.1442C21.7434 20.8734 21.9774 21.5864 22.206 22.283C22.2713 22.5007 22.3693 22.6857 22.4999 22.8381C22.6414 22.9904 22.7992 23.1102 22.9733 23.1973C23.1475 23.2843 23.3434 23.3605 23.5611 23.4258C23.6808 23.4585 23.7733 23.502 23.8386 23.5564C23.9148 23.6 23.9529 23.6707 23.9529 23.7687C23.9529 23.8449 23.9203 23.9047 23.855 23.9483C23.7897 23.9918 23.7135 24.0136 23.6264 24.0136C23.4087 24.0136 23.1366 24.0027 22.8101 23.9809C22.4944 23.97 22.1733 23.9592 21.8468 23.9483C21.5203 23.9374 21.2318 23.9319 20.9815 23.9319C20.7747 23.9319 20.5189 23.9374 20.2142 23.9483C19.9203 23.9592 19.621 23.97 19.3162 23.9809C19.0114 23.9918 18.7502 23.9973 18.5325 23.9973C18.4346 23.9973 18.3475 23.9809 18.2713 23.9483C18.206 23.9047 18.1733 23.8449 18.1733 23.7687C18.1733 23.6707 18.2114 23.5945 18.2876 23.5401C18.3638 23.4857 18.4563 23.4476 18.5652 23.4258C18.9679 23.3387 19.2618 23.2245 19.4468 23.083C19.6318 22.9415 19.6917 22.7292 19.6264 22.4462C19.5829 22.2394 19.5284 22.0217 19.4631 21.7932C19.3978 21.5646 19.3325 21.336 19.2672 21.1075C19.2128 20.868 19.1529 20.6394 19.0876 20.4217C19.0659 20.3347 19.0386 20.2694 19.006 20.2258C18.9733 20.1823 18.908 20.1605 18.8101 20.1605H15.9203C15.8441 20.1605 15.7842 20.1823 15.7407 20.2258C15.6972 20.2694 15.6645 20.3401 15.6427 20.4381C15.5992 20.5904 15.5502 20.7428 15.4958 20.8952C15.4414 21.0476 15.3869 21.2 15.3325 21.3524C15.289 21.5047 15.2455 21.6571 15.2019 21.8095C15.1584 21.9619 15.1148 22.1088 15.0713 22.2503C14.9951 22.5768 15.0278 22.8272 15.1693 23.0013C15.3108 23.1755 15.6155 23.317 16.0835 23.4258C16.3448 23.4802 16.4754 23.5945 16.4754 23.7687C16.4754 23.8449 16.4427 23.9047 16.3774 23.9483C16.323 23.9809 16.2305 23.9973 16.0999 23.9973C15.7842 23.9973 15.4903 23.9864 15.2182 23.9646C14.9461 23.9537 14.6468 23.9483 14.3203 23.9483C13.9938 23.9483 13.6835 23.9646 13.3897 23.9973C13.0958 24.0299 12.7801 24.0462 12.4427 24.0462ZM16.3774 19.2789H18.4999C18.6631 19.2789 18.7448 19.2408 18.7448 19.1646C18.7448 19.1319 18.7393 19.1047 18.7284 19.083C18.7284 19.0612 18.723 19.034 18.7121 19.0013L17.6182 15.3115C17.5856 15.1918 17.5529 15.1319 17.5203 15.1319C17.4985 15.1319 17.4604 15.1918 17.406 15.3115L16.1162 19.0013C16.0944 19.0449 16.0835 19.0884 16.0835 19.1319C16.0835 19.1864 16.1108 19.2245 16.1652 19.2462C16.2305 19.268 16.3012 19.2789 16.3774 19.2789ZM24.5412 24.0136C24.4541 24.0136 24.3779 23.9973 24.3126 23.9646C24.2473 23.9211 24.2147 23.8612 24.2147 23.785C24.2147 23.6109 24.329 23.4966 24.5575 23.4422C24.9711 23.3551 25.2596 23.2462 25.4228 23.1156C25.5861 22.9741 25.6677 22.7292 25.6677 22.3809V14.9687C25.6677 14.6204 25.597 14.3755 25.4555 14.234C25.314 14.0816 25.0256 13.9564 24.5902 13.8585C24.3616 13.8041 24.2473 13.6898 24.2473 13.5156C24.2473 13.4394 24.28 13.3796 24.3453 13.336C24.4106 13.2925 24.4868 13.2707 24.5739 13.2707C24.8242 13.2707 25.0854 13.2762 25.3575 13.287C25.6405 13.2979 25.9126 13.3143 26.1739 13.336C26.446 13.3469 26.6963 13.3524 26.9249 13.3524C27.1426 13.3524 27.3875 13.3469 27.6596 13.336C27.9426 13.3251 28.2256 13.3143 28.5085 13.3034C28.8024 13.2925 29.0691 13.287 29.3085 13.287C29.4065 13.287 29.4827 13.3088 29.5371 13.3524C29.5915 13.385 29.6188 13.4394 29.6188 13.5156C29.6188 13.6245 29.5861 13.7007 29.5208 13.7442C29.4664 13.7877 29.3793 13.8258 29.2596 13.8585C28.8242 13.9782 28.5358 14.1143 28.3943 14.2666C28.2528 14.4081 28.182 14.6476 28.182 14.985V22.3646C28.182 22.6802 28.2582 22.9143 28.4106 23.0666C28.5739 23.2081 28.8677 23.3333 29.2922 23.4422C29.4011 23.4748 29.4827 23.5129 29.5371 23.5564C29.6024 23.6 29.6351 23.6707 29.6351 23.7687C29.6351 23.8449 29.6079 23.9047 29.5534 23.9483C29.5099 23.9918 29.4392 24.0136 29.3412 24.0136C29.1017 24.0136 28.8351 24.0027 28.5412 23.9809C28.2473 23.97 27.9589 23.9592 27.6759 23.9483C27.3929 23.9374 27.1426 23.9319 26.9249 23.9319C26.6963 23.9319 26.446 23.9374 26.1739 23.9483C25.9017 23.9592 25.6242 23.97 25.3412 23.9809C25.0582 24.0027 24.7915 24.0136 24.5412 24.0136ZM30.5862 24.0462C30.4665 24.0462 30.3631 24.0245 30.276 23.9809C30.1998 23.9483 30.1617 23.883 30.1617 23.785C30.1617 23.6762 30.1944 23.6 30.2597 23.5564C30.3359 23.502 30.4338 23.4585 30.5536 23.4258C30.8692 23.3387 31.1413 23.2027 31.3699 23.0177C31.6094 22.8326 31.7889 22.6041 31.9087 22.3319C32.1808 21.7224 32.4366 21.1238 32.676 20.536C32.9155 19.9374 33.1495 19.3496 33.3781 18.7728C33.6066 18.185 33.8352 17.5918 34.0638 16.9932C34.2923 16.3836 34.5209 15.7687 34.7495 15.1483C34.9128 14.702 35.0162 14.3809 35.0597 14.185C35.1032 13.9782 35.1359 13.8585 35.1577 13.8258C35.3536 13.7714 35.5386 13.7224 35.7128 13.6789C35.8869 13.6353 36.0719 13.5755 36.2679 13.4993C36.4638 13.4231 36.627 13.3251 36.7577 13.2054C36.8992 13.0857 37.0026 12.9932 37.0679 12.9279C37.1114 12.8952 37.1549 12.8789 37.1985 12.8789C37.242 12.868 37.2855 12.9007 37.3291 12.9768C37.3617 13.0421 37.3889 13.1129 37.4107 13.1891C37.4434 13.2544 37.4706 13.3306 37.4924 13.4177C37.7209 14.1469 37.9549 14.8925 38.1944 15.6544C38.4338 16.4054 38.6733 17.1564 38.9128 17.9075C39.1631 18.6585 39.408 19.4041 39.6475 20.1442C39.8869 20.8734 40.1209 21.5864 40.3495 22.283C40.4148 22.5007 40.5128 22.6857 40.6434 22.8381C40.7849 22.9904 40.9427 23.1102 41.1168 23.1973C41.291 23.2843 41.4869 23.3605 41.7046 23.4258C41.8243 23.4585 41.9168 23.502 41.9821 23.5564C42.0583 23.6 42.0964 23.6707 42.0964 23.7687C42.0964 23.8449 42.0638 23.9047 41.9985 23.9483C41.9332 23.9918 41.857 24.0136 41.7699 24.0136C41.5522 24.0136 41.2801 24.0027 40.9536 23.9809C40.6379 23.97 40.3168 23.9592 39.9903 23.9483C39.6638 23.9374 39.3753 23.9319 39.125 23.9319C38.9182 23.9319 38.6624 23.9374 38.3577 23.9483C38.0638 23.9592 37.7645 23.97 37.4597 23.9809C37.1549 23.9918 36.8937 23.9973 36.676 23.9973C36.5781 23.9973 36.491 23.9809 36.4148 23.9483C36.3495 23.9047 36.3168 23.8449 36.3168 23.7687C36.3168 23.6707 36.3549 23.5945 36.4311 23.5401C36.5073 23.4857 36.5998 23.4476 36.7087 23.4258C37.1114 23.3387 37.4053 23.2245 37.5903 23.083C37.7753 22.9415 37.8352 22.7292 37.7699 22.4462C37.7264 22.2394 37.6719 22.0217 37.6066 21.7932C37.5413 21.5646 37.476 21.336 37.4107 21.1075C37.3563 20.868 37.2964 20.6394 37.2311 20.4217C37.2094 20.3347 37.1821 20.2694 37.1495 20.2258C37.1168 20.1823 37.0515 20.1605 36.9536 20.1605H34.0638C33.9876 20.1605 33.9277 20.1823 33.8842 20.2258C33.8406 20.2694 33.808 20.3401 33.7862 20.4381C33.7427 20.5904 33.6937 20.7428 33.6393 20.8952C33.5849 21.0476 33.5304 21.2 33.476 21.3524C33.4325 21.5047 33.3889 21.6571 33.3454 21.8095C33.3019 21.9619 33.2583 22.1088 33.2148 22.2503C33.1386 22.5768 33.1713 22.8272 33.3128 23.0013C33.4543 23.1755 33.759 23.317 34.227 23.4258C34.4883 23.4802 34.6189 23.5945 34.6189 23.7687C34.6189 23.8449 34.5862 23.9047 34.5209 23.9483C34.4665 23.9809 34.374 23.9973 34.2434 23.9973C33.9277 23.9973 33.6338 23.9864 33.3617 23.9646C33.0896 23.9537 32.7903 23.9483 32.4638 23.9483C32.1372 23.9483 31.827 23.9646 31.5332 23.9973C31.2393 24.0299 30.9236 24.0462 30.5862 24.0462ZM34.5209 19.2789H36.6434C36.8066 19.2789 36.8883 19.2408 36.8883 19.1646C36.8883 19.1319 36.8828 19.1047 36.8719 19.083C36.8719 19.0612 36.8665 19.034 36.8556 19.0013L35.7617 15.3115C35.7291 15.1918 35.6964 15.1319 35.6638 15.1319C35.642 15.1319 35.6039 15.1918 35.5495 15.3115L34.2597 19.0013C34.2379 19.0449 34.227 19.0884 34.227 19.1319C34.227 19.1864 34.2543 19.2245 34.3087 19.2462C34.374 19.268 34.4447 19.2789 34.5209 19.2789Z" fill="white"/>
<path d="M159.032 24.1932C158.248 24.1932 157.508 24.068 156.811 23.8177C156.125 23.5564 155.516 23.1864 154.983 22.7075C154.46 22.2285 154.052 21.6626 153.758 21.0095C153.464 20.3564 153.317 19.6326 153.317 18.8381C153.317 18.087 153.459 17.3687 153.742 16.683C154.036 15.9973 154.449 15.3877 154.983 14.8544C155.527 14.3211 156.18 13.902 156.942 13.5973C157.704 13.2816 158.547 13.1238 159.472 13.1238C159.701 13.1238 159.962 13.1401 160.256 13.1728C160.561 13.2054 160.871 13.249 161.187 13.3034C161.502 13.3578 161.796 13.4231 162.068 13.4993C162.351 13.5646 162.58 13.6353 162.754 13.7115C162.852 13.7442 162.928 13.7932 162.983 13.8585C163.037 13.9129 163.07 13.9945 163.081 14.1034C163.135 14.4843 163.179 14.8435 163.211 15.1809C163.255 15.5183 163.276 15.8013 163.276 16.0299C163.276 16.1387 163.249 16.2204 163.195 16.2748C163.151 16.3292 163.086 16.3564 162.999 16.3564C162.868 16.3564 162.77 16.3238 162.705 16.2585C162.651 16.1932 162.602 16.1115 162.558 16.0136C162.46 15.8068 162.346 15.5945 162.215 15.3768C162.096 15.1483 161.949 14.9415 161.774 14.7564C161.644 14.6258 161.486 14.5007 161.301 14.3809C161.127 14.2612 160.909 14.1632 160.648 14.087C160.387 14.0109 160.071 13.9728 159.701 13.9728C159.113 13.9728 158.591 14.0925 158.134 14.3319C157.676 14.5714 157.29 14.9034 156.974 15.3279C156.67 15.7415 156.436 16.2149 156.272 16.7483C156.12 17.2707 156.044 17.8258 156.044 18.4136C156.044 19.1428 156.115 19.8122 156.256 20.4217C156.398 21.0204 156.604 21.5374 156.876 21.9728C157.149 22.4081 157.486 22.7456 157.889 22.985C158.291 23.2136 158.759 23.3279 159.293 23.3279C159.576 23.3279 159.804 23.2789 159.979 23.1809C160.164 23.083 160.311 22.9959 160.419 22.9197C160.528 22.8326 160.615 22.6966 160.681 22.5115C160.757 22.3156 160.795 22.0979 160.795 21.8585C160.806 21.7605 160.811 21.6245 160.811 21.4503C160.811 21.2762 160.811 21.102 160.811 20.9279C160.822 20.7537 160.828 20.6177 160.828 20.5197C160.828 20.4 160.8 20.2911 160.746 20.1932C160.702 20.0843 160.61 20.0027 160.468 19.9483C160.37 19.883 160.256 19.8285 160.125 19.785C160.006 19.7415 159.881 19.7088 159.75 19.687C159.63 19.6544 159.521 19.6272 159.423 19.6054C159.336 19.5945 159.249 19.5564 159.162 19.4911C159.075 19.4258 159.032 19.3442 159.032 19.2462C159.032 19.17 159.07 19.1102 159.146 19.0666C159.222 19.0231 159.298 19.0013 159.374 19.0013C159.625 19.0013 159.897 19.0068 160.191 19.0177C160.496 19.0285 160.795 19.0449 161.089 19.0666C161.383 19.0775 161.644 19.083 161.872 19.083C162.188 19.083 162.52 19.0721 162.868 19.0503C163.228 19.0285 163.57 19.0177 163.897 19.0177C163.973 19.0177 164.038 19.0394 164.093 19.083C164.147 19.1156 164.174 19.1755 164.174 19.2626C164.174 19.3714 164.142 19.453 164.076 19.5075C164.022 19.551 163.946 19.5836 163.848 19.6054C163.543 19.6816 163.336 19.7796 163.228 19.8993C163.119 20.019 163.042 20.1877 162.999 20.4054C162.955 20.6449 162.923 20.8571 162.901 21.0422C162.89 21.2163 162.885 21.4122 162.885 21.6299V22.1524C162.885 22.2068 162.906 22.2612 162.95 22.3156C162.993 22.37 163.042 22.4245 163.097 22.4789C163.14 22.5333 163.179 22.5877 163.211 22.6422C163.244 22.6966 163.26 22.7564 163.26 22.8217C163.26 22.887 163.238 22.9578 163.195 23.034C163.151 23.0993 163.07 23.1428 162.95 23.1646C162.863 23.1755 162.711 23.2353 162.493 23.3442C162.275 23.4422 162.003 23.5619 161.676 23.7034C161.35 23.834 160.964 23.9483 160.517 24.0462C160.071 24.1442 159.576 24.1932 159.032 24.1932ZM171.028 24.1932C170.276 24.1932 169.558 24.068 168.872 23.8177C168.198 23.5564 167.593 23.1918 167.06 22.7238C166.538 22.2449 166.124 21.6789 165.819 21.0258C165.525 20.3619 165.379 19.6272 165.379 18.8217C165.379 18.0816 165.498 17.3741 165.738 16.6993C165.988 16.0136 166.358 15.4041 166.848 14.8707C167.338 14.3374 167.942 13.9129 168.66 13.5973C169.389 13.2816 170.228 13.1238 171.174 13.1238C171.936 13.1238 172.655 13.2544 173.33 13.5156C174.015 13.766 174.619 14.1306 175.142 14.6095C175.664 15.0775 176.078 15.6435 176.383 16.3075C176.687 16.9605 176.84 17.6898 176.84 18.4952C176.84 19.2245 176.715 19.9319 176.464 20.6177C176.214 21.3034 175.844 21.9129 175.354 22.4462C174.864 22.9796 174.255 23.4041 173.525 23.7197C172.807 24.0353 171.974 24.1932 171.028 24.1932ZM171.321 23.4422C171.942 23.4422 172.459 23.268 172.872 22.9197C173.297 22.5714 173.613 22.087 173.819 21.4666C174.026 20.8462 174.13 20.1333 174.13 19.3279C174.13 18.6639 174.064 18.0109 173.934 17.3687C173.814 16.7156 173.618 16.1279 173.346 15.6054C173.085 15.083 172.747 14.6694 172.334 14.3646C171.92 14.049 171.43 13.8911 170.864 13.8911C170.255 13.8911 169.738 14.0653 169.313 14.4136C168.9 14.7619 168.589 15.2408 168.383 15.8503C168.176 16.4598 168.072 17.1673 168.072 17.9728C168.072 18.6476 168.138 19.3115 168.268 19.9646C168.399 20.6068 168.595 21.1891 168.856 21.7115C169.117 22.234 169.449 22.653 169.852 22.9687C170.266 23.2843 170.755 23.4422 171.321 23.4422ZM182.616 24.2422C182.475 24.2422 182.366 24.1551 182.29 23.9809C182.213 23.8177 182.115 23.6 181.996 23.3279C181.887 23.0558 181.794 22.8 181.718 22.5605L178.502 14.985C178.393 14.7238 178.246 14.4952 178.061 14.2993C177.887 14.0925 177.642 13.951 177.326 13.8748C177.217 13.8313 177.125 13.7877 177.049 13.7442C176.972 13.7007 176.934 13.6245 176.934 13.5156C176.934 13.4394 176.967 13.385 177.032 13.3524C177.109 13.3088 177.19 13.287 177.277 13.287C177.495 13.287 177.745 13.2925 178.028 13.3034C178.322 13.3143 178.616 13.3251 178.91 13.336C179.204 13.3469 179.454 13.3524 179.661 13.3524C179.879 13.3524 180.145 13.3469 180.461 13.336C180.777 13.3143 181.092 13.3034 181.408 13.3034C181.724 13.2925 181.99 13.287 182.208 13.287C182.306 13.287 182.404 13.3088 182.502 13.3524C182.6 13.385 182.649 13.4394 182.649 13.5156C182.649 13.6027 182.6 13.6789 182.502 13.7442C182.404 13.7986 182.295 13.8367 182.175 13.8585C181.86 13.9347 181.626 14.0163 181.473 14.1034C181.321 14.1904 181.245 14.3265 181.245 14.5115C181.245 14.5877 181.255 14.6694 181.277 14.7564C181.299 14.8326 181.315 14.9034 181.326 14.9687L183.432 20.8789C183.454 20.9442 183.476 20.9823 183.498 20.9932C183.53 21.0041 183.563 20.9605 183.596 20.8626L185.506 15.8503C185.724 15.2952 185.767 14.8435 185.636 14.4952C185.506 14.1469 185.201 13.9401 184.722 13.8748C184.602 13.853 184.488 13.8149 184.379 13.7605C184.27 13.6952 184.216 13.6136 184.216 13.5156C184.216 13.4394 184.265 13.385 184.363 13.3524C184.472 13.3197 184.581 13.3034 184.69 13.3034C184.918 13.3034 185.109 13.3088 185.261 13.3197C185.413 13.3197 185.56 13.3251 185.702 13.336C185.854 13.336 186.039 13.336 186.257 13.336C186.572 13.336 186.872 13.3251 187.155 13.3034C187.438 13.2707 187.737 13.2544 188.053 13.2544C188.172 13.2544 188.281 13.2707 188.379 13.3034C188.488 13.336 188.543 13.4068 188.543 13.5156C188.543 13.6136 188.494 13.6843 188.396 13.7279C188.309 13.7605 188.211 13.7986 188.102 13.8421C187.753 13.9292 187.47 14.0979 187.253 14.3483C187.046 14.5877 186.845 14.9469 186.649 15.4258L184.167 21.3687C183.993 21.7714 183.835 22.1251 183.694 22.4299C183.563 22.7347 183.443 23.0122 183.334 23.2626C183.226 23.5129 183.111 23.7524 182.992 23.9809C182.959 24.0789 182.915 24.1442 182.861 24.1768C182.807 24.2204 182.725 24.2422 182.616 24.2422Z" fill="white"/>
</svg>
